<svg xmlns="http://www.w3.org/2000/svg" xmlns:xlink="http://www.w3.org/1999/xlink" version="1.1" width="256" height="256" viewBox="0 0 256 256" xml:space="preserve">
<desc>Created with Fabric.js 1.7.22</desc>
<defs>
</defs>
<g transform="translate(128 128) scale(1.21 1.21)" style="">
	<g style="stroke: none; stroke-width: 0; stroke-dasharray: none; stroke-linecap: butt; stroke-linejoin: miter; stroke-miterlimit: 10; fill: none; fill-rule: nonzero; opacity: 1;" transform="translate(-104.85 -104.85000000000001) scale(2.33 2.33)" >
	<path d="M 46.715 90 c -3.908 0 -7.841 -0.514 -11.717 -1.552 C 23.391 85.337 13.69 77.893 7.682 67.487 C 1.674 57.08 0.077 44.957 3.188 33.349 c 3.11 -11.607 10.554 -21.308 20.961 -27.316 c 8.601 -4.967 18.349 -6.923 28.193 -5.659 c 1.257 0.162 2.277 1.095 2.548 2.332 c 0.271 1.238 -0.265 2.512 -1.338 3.185 c -13.943 8.735 -18.418 26.742 -10.188 40.996 l 0 0 C 51.592 61.14 69.426 66.268 83.96 58.56 c 1.117 -0.596 2.491 -0.421 3.426 0.434 c 0.936 0.854 1.235 2.204 0.746 3.373 c -3.826 9.156 -10.395 16.621 -18.997 21.586 C 62.204 87.955 54.509 90 46.715 90 z M 43.74 6.101 c -5.805 0.421 -11.436 2.15 -16.592 5.127 c -9.019 5.207 -15.47 13.614 -18.166 23.674 C 6.287 44.961 7.67 55.469 12.877 64.488 c 5.207 9.019 13.614 15.471 23.673 18.165 c 10.058 2.697 20.567 1.311 29.585 -3.895 c 5.156 -2.977 9.47 -6.989 12.737 -11.806 c -15.547 4.094 -32.303 -2.515 -40.705 -17.066 l 0 0 C 29.768 35.336 32.427 17.518 43.74 6.101 z" style="stroke: none; stroke-width: 1; stroke-dasharray: none; stroke-linecap: butt; stroke-linejoin: miter; stroke-miterlimit: 10; fill: rgb(0,0,0); fill-rule: nonzero; opacity: 1;" transform=" matrix(1 0 0 1 0 0) " stroke-linecap="round" />
</g>
</g>
</svg>