<svg version="1.1" viewBox="0 0 256 256" xml:space="preserve" xmlns="http://www.w3.org/2000/svg">
<g transform="translate(128 128) scale(1.21)" style="">
	<g transform="translate(-104.85 -104.85) scale(2.33)" fill="none">
	<path d="m46.715 90c-3.908 0-7.841-0.514-11.717-1.552-11.607-3.111-21.308-10.555-27.316-20.961-6.008-10.407-7.605-22.53-4.494-34.138 3.11-11.607 10.554-21.308 20.961-27.316 8.601-4.967 18.349-6.923 28.193-5.659 1.257 0.162 2.277 1.095 2.548 2.332 0.271 1.238-0.265 2.512-1.338 3.185-13.943 8.735-18.418 26.742-10.188 40.996v0c8.228 14.253 26.062 19.381 40.596 11.673 1.117-0.596 2.491-0.421 3.426 0.434 0.936 0.854 1.235 2.204 0.746 3.373-3.826 9.156-10.395 16.621-18.997 21.586-6.931 4.002-14.626 6.047-22.42 6.047zm-2.975-83.899c-5.805 0.421-11.436 2.15-16.592 5.127-9.019 5.207-15.47 13.614-18.166 23.674-2.695 10.059-1.312 20.567 3.895 29.586s13.614 15.471 23.673 18.165c10.058 2.697 20.567 1.311 29.585-3.895 5.156-2.977 9.47-6.989 12.737-11.806-15.547 4.094-32.303-2.515-40.705-17.066v0c-8.399-14.55-5.74-32.368 5.573-43.785z" fill="#000" stroke-linecap="round"/>
</g>
</g>
</svg>
