<svg enable-background="new 0 0 60.364 60.364" version="1.1" viewBox="0 0 60.364 60.364" xml:space="preserve" xmlns="http://www.w3.org/2000/svg">
	<path d="m54.454 23.18l-18.609-2e-3 -1e-3 -17.268c1e-3 -3.264-2.646-5.91-5.91-5.91-3.263 0-5.909 2.646-5.909 5.91v17.269l-18.115-1e-3c-3.264 1e-3 -5.91 2.647-5.91 5.91 2e-3 3.264 2.646 5.909 5.91 5.909h18.115v19.457c0 3.267 2.646 5.91 5.91 5.91s5.909-2.646 5.91-5.908v-19.459h18.611c3.262 0 5.908-2.645 5.908-5.907 3e-3 -3.266-2.646-5.912-5.91-5.91z"/>
</svg>