<svg enable-background="new 0 0 458.5 458.5" version="1.1" viewBox="0 0 458.5 458.5" xml:space="preserve" xmlns="http://www.w3.org/2000/svg">
			<path d="m382.08 57.069h-89.78c-3.17-31.994-30.234-57.069-63.049-57.069s-59.879 25.075-63.049 57.069h-89.779c-26.938 0-48.854 21.916-48.854 48.854 0 26.125 20.613 47.524 46.429 48.793v244.78c0 32.533 26.467 59 59 59h192.51c32.533 0 59-26.467 59-59v-244.78c25.816-1.269 46.429-22.668 46.429-48.793 0-26.939-21.916-48.855-48.855-48.855zm-152.83-27.069c16.244 0 29.807 11.673 32.76 27.069h-65.52c2.953-15.396 16.516-27.069 32.76-27.069zm125.25 369.5c0 15.991-13.009 29-29 29h-192.51c-15.991 0-29-13.009-29-29v-244.72h250.51v244.72zm27.575-274.72h-305.66c-10.396 0-18.854-8.458-18.854-18.854s8.458-18.854 18.854-18.854h305.66c10.396 0 18.854 8.458 18.854 18.854s-8.457 18.854-18.854 18.854z"/>
			<path d="m229.25 392.32c8.284 0 15-6.716 15-15v-173.7c0-8.284-6.715-15-15-15-8.284 0-15 6.716-15 15v173.7c0 8.284 6.716 15 15 15z"/>
			<path d="m306.67 392.32c8.284 0 15-6.716 15-15v-173.7c0-8.284-6.716-15-15-15s-15 6.716-15 15v173.7c0 8.284 6.716 15 15 15z"/>
			<path d="m151.83 392.32c8.284 0 15-6.716 15-15v-173.7c0-8.284-6.716-15-15-15s-15 6.716-15 15v173.7c0 8.284 6.716 15 15 15z"/>
</svg>
